<mxfile host="app.diagrams.net" modified="2023-05-04T11:12:28.049Z" agent="Mozilla/5.0 (Windows NT 10.0; Win64; x64) AppleWebKit/537.36 (KHTML, like Gecko) Chrome/112.0.0.0 Safari/537.36" etag="iKwfQ0NYiWB3t4nAsnjK" version="21.2.7" type="onedrive">
  <diagram name="Page-1" id="2YBvvXClWsGukQMizWep">
    <mxGraphModel grid="1" page="1" gridSize="10" guides="1" tooltips="1" connect="1" arrows="1" fold="1" pageScale="1" pageWidth="850" pageHeight="1100" math="0" shadow="0">
      <root>
        <mxCell id="0" />
        <mxCell id="1" parent="0" />
        <mxCell id="vbn1vjWYSr6YsiNQEqlZ-1" value="cd : addToReport" style="shape=umlFrame;whiteSpace=wrap;html=1;pointerEvents=0;width=150;height=30;" vertex="1" parent="1">
          <mxGeometry x="10" y="11" width="600" height="239" as="geometry" />
        </mxCell>
        <mxCell id="vbn1vjWYSr6YsiNQEqlZ-16" style="edgeStyle=none;rounded=0;orthogonalLoop=1;jettySize=auto;html=1;entryX=0;entryY=0.5;entryDx=0;entryDy=0;endArrow=none;endFill=0;exitX=-0.001;exitY=0.37;exitDx=0;exitDy=0;exitPerimeter=0;" edge="1" parent="1" source="vbn1vjWYSr6YsiNQEqlZ-1" target="vbn1vjWYSr6YsiNQEqlZ-15">
          <mxGeometry relative="1" as="geometry">
            <mxPoint x="210" y="101" as="sourcePoint" />
          </mxGeometry>
        </mxCell>
        <mxCell id="vbn1vjWYSr6YsiNQEqlZ-15" value="&lt;u&gt;r : Report&lt;/u&gt;" style="html=1;whiteSpace=wrap;" vertex="1" parent="1">
          <mxGeometry x="160" y="80" width="90" height="40" as="geometry" />
        </mxCell>
        <mxCell id="vbn1vjWYSr6YsiNQEqlZ-38" value="&lt;font color=&quot;#333333&quot;&gt;addToReport(c, branchId)&lt;/font&gt;" style="html=1;verticalAlign=bottom;endArrow=block;edgeStyle=orthogonalEdgeStyle;elbow=vertical;strokeColor=default;curved=1;shadow=0;" edge="1" parent="1">
          <mxGeometry x="-0.0807" y="7" width="80" relative="1" as="geometry">
            <mxPoint x="50" y="90" as="sourcePoint" />
            <mxPoint x="120" y="90" as="targetPoint" />
            <mxPoint as="offset" />
          </mxGeometry>
        </mxCell>
        <mxCell id="mYHmk5_OP7it5nChvbaf-1" value="" style="endArrow=none;html=1;rounded=0;entryX=1;entryY=0.5;entryDx=0;entryDy=0;" edge="1" parent="1" target="vbn1vjWYSr6YsiNQEqlZ-15">
          <mxGeometry width="50" height="50" relative="1" as="geometry">
            <mxPoint x="230" y="120" as="sourcePoint" />
            <mxPoint x="240" y="130" as="targetPoint" />
            <Array as="points">
              <mxPoint x="230" y="130" />
              <mxPoint x="280" y="130" />
              <mxPoint x="280" y="100" />
            </Array>
          </mxGeometry>
        </mxCell>
        <mxCell id="vbn1vjWYSr6YsiNQEqlZ-31" value="&lt;font style=&quot;font-size: 9px;&quot;&gt;1. amountToOrder = c.getMinCapacity() * 2 - c.getTotalAmount(branchId)&lt;br&gt;2. items.add(c, amoutToOrder)&lt;/font&gt;" style="html=1;verticalAlign=bottom;endArrow=block;edgeStyle=orthogonalEdgeStyle;elbow=vertical;strokeColor=default;curved=1;shadow=0;" edge="1" parent="1">
          <mxGeometry x="-1" y="22" width="80" relative="1" as="geometry">
            <mxPoint x="206" y="172" as="sourcePoint" />
            <mxPoint x="276" y="172" as="targetPoint" />
            <mxPoint x="-20" y="12" as="offset" />
            <Array as="points">
              <mxPoint x="246" y="172" />
              <mxPoint x="246" y="172" />
            </Array>
          </mxGeometry>
        </mxCell>
        <mxCell id="sXa2tzEa1zH8zribR-Vg-3" style="edgeStyle=orthogonalEdgeStyle;rounded=0;orthogonalLoop=1;jettySize=auto;html=1;exitX=0.5;exitY=1;exitDx=0;exitDy=0;entryX=0.292;entryY=-0.028;entryDx=0;entryDy=0;entryPerimeter=0;endArrow=open;endFill=0;" edge="1" parent="1">
          <mxGeometry relative="1" as="geometry">
            <mxPoint x="359" y="110" as="sourcePoint" />
            <mxPoint x="359.26" y="198.88" as="targetPoint" />
          </mxGeometry>
        </mxCell>
        <mxCell id="9i01c7RY3E8v7-K29gpy-1" value="&lt;u&gt;c : CatalogItem&lt;/u&gt;" style="html=1;whiteSpace=wrap;" vertex="1" parent="1">
          <mxGeometry x="335" y="70" width="90" height="40" as="geometry" />
        </mxCell>
        <mxCell id="9i01c7RY3E8v7-K29gpy-3" value="&lt;font size=&quot;1&quot;&gt;1. 1. getMinCapacity()&lt;br&gt;&lt;/font&gt;1. 2. getTotalAmount(branchId)" style="html=1;verticalAlign=bottom;endArrow=block;edgeStyle=orthogonalEdgeStyle;elbow=vertical;strokeColor=default;curved=1;shadow=0;" edge="1" parent="1">
          <mxGeometry x="-0.0574" y="13" width="80" relative="1" as="geometry">
            <mxPoint x="261" y="78" as="sourcePoint" />
            <mxPoint x="331" y="78" as="targetPoint" />
            <mxPoint as="offset" />
            <Array as="points">
              <mxPoint x="301" y="78" />
              <mxPoint x="301" y="78" />
            </Array>
          </mxGeometry>
        </mxCell>
        <mxCell id="oQ9EDdhWw8Bkn-DuQsRS-1" value="" style="endArrow=open;endFill=1;endSize=12;html=1;rounded=0;exitX=1;exitY=0.25;exitDx=0;exitDy=0;entryX=0;entryY=0.5;entryDx=0;entryDy=0;" edge="1" parent="1" source="vbn1vjWYSr6YsiNQEqlZ-15" target="9i01c7RY3E8v7-K29gpy-1">
          <mxGeometry width="160" relative="1" as="geometry">
            <mxPoint x="350" y="130" as="sourcePoint" />
            <mxPoint x="510" y="130" as="targetPoint" />
          </mxGeometry>
        </mxCell>
        <mxCell id="sXa2tzEa1zH8zribR-Vg-1" value="&lt;u&gt;stock : StockItemDataMaper&lt;/u&gt;" style="html=1;whiteSpace=wrap;" vertex="1" parent="1">
          <mxGeometry x="335" y="200" width="155" height="40" as="geometry" />
        </mxCell>
        <mxCell id="sXa2tzEa1zH8zribR-Vg-6" value="&lt;font size=&quot;1&quot;&gt;1.2.1&amp;nbsp;&lt;/font&gt;getBackIdAmount(branchId, getCatalogId()) + &lt;br&gt;getShelvesIdAmount(branchId, getCatalogId())" style="html=1;verticalAlign=bottom;endArrow=block;edgeStyle=orthogonalEdgeStyle;elbow=vertical;strokeColor=default;shadow=0;rounded=0;" edge="1" parent="1">
          <mxGeometry x="-0.5" y="62" width="80" relative="1" as="geometry">
            <mxPoint x="423" y="164" as="sourcePoint" />
            <mxPoint x="423" y="184" as="targetPoint" />
            <mxPoint as="offset" />
            <Array as="points">
              <mxPoint x="423" y="154" />
            </Array>
          </mxGeometry>
        </mxCell>
      </root>
    </mxGraphModel>
  </diagram>
</mxfile>
